<svg height="1024" node-id="1" sillyvg="true" template-height="1024" template-width="1024" version="1.1" viewBox="0 0 1024 1024" width="1024" xmlns="http://www.w3.org/2000/svg" xmlns:xlink="http://www.w3.org/1999/xlink"><defs node-id="55"></defs><path d="M 0.00 0.00 L 1024.00 0.00 L 1024.00 1024.00 L 0.00 1024.00 Z" fill="#fdfdfd" fill-rule="nonzero" node-id="57" stroke="none" target-height="1024" target-width="1024" target-x="0" target-y="0"/><path d="M 37.09 710.40 C 167.39 685.52 331.92 670.67 510.78 670.67 C 689.64 670.67 854.17 685.52 984.48 710.40 C 854.17 674.86 689.64 653.64 510.78 653.64 C 331.92 653.64 167.39 674.86 37.09 710.40 Z" fill="#f2f1fe" fill-rule="nonzero" node-id="59" stroke="none" target-height="56.753967" target-width="947.3906" target-x="37.0884" target-y="653.645"/><path d="M 826.98 715.67 C 826.98 737.83 685.42 755.80 510.78 755.80 C 336.15 755.80 194.58 737.83 194.58 715.67 C 194.58 693.50 336.15 675.54 510.78 675.54 C 685.42 675.54 826.98 693.50 826.98 715.67 Z" fill="#f2f1fe" fill-rule="nonzero" node-id="61" stroke="none" target-height="80.26599" target-width="632.399" target-x="194.584" target-y="675.536"/><path d="M 256.00 627.15 C 256.00 630.77 254.56 634.24 252.00 636.80 C 249.44 639.36 245.97 640.80 242.35 640.80 C 238.73 640.80 235.25 639.36 232.69 636.80 C 230.13 634.24 228.69 630.77 228.69 627.15 C 228.69 623.53 230.13 620.06 232.69 617.49 C 235.25 614.93 238.73 613.50 242.35 613.50 C 245.97 613.50 249.44 614.93 252.00 617.49 C 254.56 620.06 256.00 623.53 256.00 627.15 Z" fill="#f3f2fd" fill-rule="nonzero" node-id="63" stroke="none" target-height="27.30664" target-width="27.30661" target-x="228.6937" target-y="613.49567"/><path d="M 902.83 418.08 C 902.83 421.02 901.66 423.85 899.58 425.93 C 897.50 428.01 894.68 429.18 891.73 429.18 C 888.79 429.18 885.97 428.01 883.89 425.93 C 881.81 423.85 880.64 421.02 880.64 418.08 C 880.64 415.14 881.81 412.32 883.89 410.24 C 885.97 408.16 888.79 406.99 891.73 406.99 C 894.68 406.99 897.50 408.16 899.58 410.24 C 901.66 412.32 902.83 415.14 902.83 418.08 Z" fill="#f4f4fb" fill-rule="nonzero" node-id="65" stroke="none" target-height="22.186554" target-width="22.186646" target-x="880.63965" target-y="406.9887"/><path d="M 708.27 632.27 C 708.27 637.25 706.29 642.02 702.77 645.54 C 699.25 649.06 694.47 651.04 689.49 651.04 C 684.51 651.04 679.74 649.06 676.22 645.54 C 672.70 642.02 670.72 637.25 670.72 632.27 C 670.72 627.29 672.70 622.51 676.22 618.99 C 679.74 615.47 684.51 613.50 689.49 613.50 C 694.47 613.50 699.25 615.47 702.77 618.99 C 706.29 622.51 708.27 627.29 708.27 632.27 Z" fill="#f4f4fb" fill-rule="nonzero" node-id="67" stroke="none" target-height="37.54663" target-width="37.54663" target-x="670.71967" target-y="613.49567"/><path d="M 157.01 449.66 C 157.01 454.64 155.04 459.41 151.51 462.93 C 147.99 466.45 143.22 468.43 138.24 468.43 C 133.26 468.43 128.49 466.45 124.97 462.93 C 121.44 459.41 119.47 454.64 119.47 449.66 C 119.47 444.68 121.44 439.90 124.97 436.38 C 128.49 432.86 133.26 430.88 138.24 430.88 C 143.22 430.88 147.99 432.86 151.51 436.38 C 155.04 439.90 157.01 444.68 157.01 449.66 Z" fill="#f3f2fd" fill-rule="nonzero" node-id="69" stroke="none" target-height="37.54663" target-width="37.546608" target-x="119.4667" target-y="430.8827"/><path d="M 339.78 629.32 L 281.41 629.32 L 281.41 590.40 L 165.40 590.40 L 165.40 532.03 L 223.77 388.52 L 281.41 388.52 L 339.78 388.52 L 339.78 532.03 L 378.70 532.03 L 378.70 590.40 L 339.78 590.40 L 339.78 629.32 Z M 281.41 400.72 L 228.36 532.03 L 281.41 532.03 L 281.41 400.72 Z" fill="#d2d0ef" fill-rule="evenodd" node-id="71" stroke="none" target-height="240.79803" target-width="213.30402" target-x="165.397" target-y="388.524"/><path d="M 281.41 617.16 L 339.78 617.16 L 339.78 578.24 L 378.70 578.24 L 378.70 558.78 L 165.40 558.78 L 165.40 578.24 L 281.41 578.24 L 281.41 617.16 Z" fill="#eeedfb" fill-rule="evenodd" node-id="73" stroke="none" target-height="58.375" target-width="213.30402" target-x="165.397" target-y="558.785"/><path d="M 378.70 558.78 L 165.40 558.78 L 165.40 519.87 L 173.26 500.41 L 236.22 500.41 L 228.36 519.87 L 281.41 519.87 L 281.41 500.41 L 339.78 500.41 L 339.78 519.87 L 378.70 519.87 L 378.70 558.78 Z" fill="#f2f1fe" fill-rule="evenodd" node-id="75" stroke="none" target-height="58.37497" target-width="213.30402" target-x="165.397" target-y="500.41"/><path d="M 339.78 500.41 L 281.41 500.41 L 281.41 442.03 L 339.78 442.03 L 339.78 500.41 Z M 259.80 442.03 L 196.84 442.03 L 173.26 500.41 L 236.22 500.41 L 259.80 442.03 Z" fill="#f6f5ff" fill-rule="evenodd" node-id="77" stroke="none" target-height="58.375977" target-width="166.526" target-x="173.258" target-y="442.03403"/><path d="M 339.78 442.03 L 339.78 388.52 L 218.46 388.52 L 196.84 442.03 L 259.80 442.03 L 281.41 388.56 L 281.41 442.03 L 339.78 442.03 Z" fill="#f9f9ff" fill-rule="evenodd" node-id="79" stroke="none" target-height="53.51004" target-width="142.94" target-x="196.844" target-y="388.524"/><path d="M 281.41 631.75 C 280.07 631.75 278.98 630.66 278.98 629.32 L 278.98 592.84 L 165.40 592.84 C 164.05 592.84 162.96 591.75 162.96 590.40 L 162.96 519.87 C 162.96 519.56 163.02 519.25 163.14 518.96 L 216.21 387.61 C 216.58 386.69 217.47 386.09 218.46 386.09 L 339.78 386.09 C 341.13 386.09 342.22 387.18 342.22 388.52 L 342.22 517.44 L 378.70 517.44 C 380.04 517.44 381.13 518.52 381.13 519.87 L 381.13 590.40 C 381.13 591.75 380.04 592.84 378.70 592.84 L 342.22 592.84 L 342.22 629.32 C 342.22 630.66 341.13 631.75 339.78 631.75 L 281.41 631.75 Z M 165.40 590.40 L 165.40 519.87 L 218.46 388.52 L 339.78 388.52 L 339.78 519.87 L 378.70 519.87 L 378.70 590.40 L 339.78 590.40 L 339.78 629.32 L 281.41 629.32 L 281.41 590.40 L 165.40 590.40 Z M 233.27 519.87 L 281.41 519.87 L 281.41 400.72 L 233.27 519.87 Z M 236.88 517.44 L 278.98 517.44 L 278.98 413.23 L 236.88 517.44 Z" fill="#c9c6e7" fill-rule="evenodd" node-id="81" stroke="none" target-height="245.66302" target-width="218.16899" target-x="162.964" target-y="386.091"/><path d="M 816.52 629.32 L 758.14 629.32 L 758.14 590.40 L 642.13 590.40 L 642.13 532.03 L 700.50 388.52 L 758.14 388.52 L 816.52 388.52 L 816.52 532.03 L 855.43 532.03 L 855.43 590.40 L 816.52 590.40 L 816.52 629.32 Z M 758.14 400.72 L 705.09 532.03 L 758.14 532.03 L 758.14 400.72 Z" fill="#d2d0ef" fill-rule="evenodd" node-id="83" stroke="none" target-height="240.79803" target-width="213.305" target-x="642.128" target-y="388.524"/><path d="M 758.14 617.16 L 816.52 617.16 L 816.52 578.24 L 855.43 578.24 L 855.43 558.78 L 642.13 558.78 L 642.13 578.24 L 758.14 578.24 L 758.14 617.16 Z" fill="#eeedfb" fill-rule="evenodd" node-id="85" stroke="none" target-height="58.375" target-width="213.305" target-x="642.128" target-y="558.785"/><path d="M 855.43 558.78 L 855.43 519.87 L 816.52 519.87 L 816.52 500.41 L 758.14 500.41 L 758.14 519.87 L 705.09 519.87 L 712.95 500.41 L 649.99 500.41 L 642.13 519.87 L 642.13 558.78 L 855.43 558.78 Z" fill="#f2f1fe" fill-rule="evenodd" node-id="87" stroke="none" target-height="58.37497" target-width="213.305" target-x="642.128" target-y="500.41"/><path d="M 816.52 500.41 L 758.14 500.41 L 758.14 442.03 L 816.52 442.03 L 816.52 500.41 Z M 736.53 442.03 L 673.58 442.03 L 649.99 500.41 L 712.95 500.41 L 736.53 442.03 Z" fill="#f6f5ff" fill-rule="evenodd" node-id="89" stroke="none" target-height="58.375977" target-width="166.526" target-x="649.99" target-y="442.03403"/><path d="M 816.52 442.03 L 816.52 388.52 L 695.20 388.52 L 673.58 442.03 L 736.53 442.03 L 758.14 388.56 L 758.14 442.03 L 816.52 442.03 Z" fill="#f9f9ff" fill-rule="evenodd" node-id="91" stroke="none" target-height="53.51004" target-width="142.94098" target-x="673.575" target-y="388.524"/><path d="M 758.14 631.75 C 756.80 631.75 755.71 630.66 755.71 629.32 L 755.71 592.84 L 642.13 592.84 C 640.78 592.84 639.70 591.75 639.70 590.40 L 639.70 519.87 C 639.70 519.56 639.76 519.25 639.87 518.96 L 692.94 387.61 C 693.31 386.69 694.20 386.09 695.20 386.09 L 816.52 386.09 C 817.86 386.09 818.95 387.18 818.95 388.52 L 818.95 517.44 L 855.43 517.44 C 856.78 517.44 857.87 518.52 857.87 519.87 L 857.87 590.40 C 857.87 591.75 856.78 592.84 855.43 592.84 L 818.95 592.84 L 818.95 629.32 C 818.95 630.66 817.86 631.75 816.52 631.75 L 758.14 631.75 Z M 642.13 590.40 L 642.13 519.87 L 695.20 388.52 L 816.52 388.52 L 816.52 519.87 L 855.43 519.87 L 855.43 590.40 L 816.52 590.40 L 816.52 629.32 L 758.14 629.32 L 758.14 590.40 L 642.13 590.40 Z M 710.00 519.87 L 758.14 519.87 L 758.14 400.72 L 710.00 519.87 Z M 713.61 517.44 L 755.71 517.44 L 755.71 413.23 L 713.61 517.44 Z" fill="#c9c6e7" fill-rule="evenodd" node-id="93" stroke="none" target-height="245.66302" target-width="218.169" target-x="639.696" target-y="386.091"/><path d="M 559.43 522.30 L 559.43 507.71 C 559.43 480.84 537.65 459.06 510.78 459.06 C 483.92 459.06 462.14 480.84 462.14 507.71 L 462.14 522.30 C 462.14 549.17 483.92 570.95 510.78 570.95 C 537.65 570.95 559.43 549.17 559.43 522.30 Z M 510.78 400.69 C 451.68 400.69 403.76 448.60 403.76 507.71 L 403.76 522.30 C 403.76 581.41 451.68 629.32 510.78 629.32 C 569.89 629.32 617.80 581.41 617.80 522.30 L 617.80 507.71 C 617.80 448.60 569.89 400.69 510.78 400.69 Z" fill="#d2d0ef" fill-rule="evenodd" node-id="95" stroke="none" target-height="228.637" target-width="214.04297" target-x="403.76202" target-y="400.68503"/><path d="M 557.00 510.14 L 557.00 507.71 C 557.00 482.18 536.31 461.49 510.78 461.49 C 485.26 461.49 464.57 482.18 464.57 507.71 L 464.57 510.14 C 464.57 535.66 485.26 556.35 510.78 556.35 C 536.31 556.35 557.00 535.66 557.00 510.14 Z M 401.33 495.55 C 401.33 435.10 450.33 386.09 510.78 386.09 C 571.23 386.09 620.24 435.10 620.24 495.55 L 620.24 522.30 C 620.24 582.75 571.23 631.75 510.78 631.75 C 450.33 631.75 401.33 582.75 401.33 522.30 L 401.33 495.55 Z M 559.43 507.71 L 559.43 510.14 C 559.43 537.00 537.65 558.78 510.78 558.78 C 483.92 558.78 462.14 537.00 462.14 510.14 L 462.14 507.71 C 462.14 480.84 483.92 459.06 510.78 459.06 C 537.65 459.06 559.43 480.84 559.43 507.71 Z M 403.76 495.55 C 403.76 436.44 451.68 388.52 510.78 388.52 C 569.89 388.52 617.80 436.44 617.80 495.55 L 617.80 522.30 C 617.80 581.41 569.89 629.32 510.78 629.32 C 451.68 629.32 403.76 581.41 403.76 522.30 L 403.76 495.55 Z" fill="#c9c6e7" fill-rule="evenodd" node-id="97" stroke="none" target-height="245.66302" target-width="218.90802" target-x="401.32996" target-y="386.091"/><path d="M 510.78 388.52 C 469.19 388.52 433.15 412.25 415.43 446.90 L 510.76 446.90 C 510.76 446.90 510.78 446.90 510.78 446.90 C 510.79 446.90 510.80 446.90 510.81 446.90 L 606.14 446.90 C 588.42 412.25 552.37 388.52 510.78 388.52 Z" fill="#f9f9ff" fill-rule="evenodd" node-id="99" stroke="none" target-height="58.375" target-width="190.70398" target-x="415.432" target-y="388.524"/><path d="M 603.76 563.65 L 418.36 563.65 C 436.86 595.64 471.45 617.16 511.06 617.16 C 550.67 617.16 585.26 595.64 603.76 563.65 Z" fill="#eeedfb" fill-rule="evenodd" node-id="101" stroke="none" target-height="53.50995" target-width="185.40799" target-x="418.356" target-y="563.65"/><path d="M 559.43 505.27 L 559.43 510.14 C 559.43 537.00 537.65 558.78 510.78 558.78 C 483.92 558.78 462.14 537.00 462.14 510.14 L 462.14 505.27 L 403.76 505.27 L 403.76 510.14 C 403.76 529.63 408.97 547.91 418.08 563.65 L 603.49 563.65 C 612.59 547.91 617.80 529.63 617.80 510.14 L 617.80 505.27 L 559.43 505.27 Z" fill="#f2f1fe" fill-rule="evenodd" node-id="103" stroke="none" target-height="58.376038" target-width="214.04297" target-x="403.76202" target-y="505.274"/><path d="M 559.43 505.27 L 617.80 505.27 L 617.80 495.55 C 617.80 478.03 613.60 461.49 606.14 446.90 L 510.86 446.90 C 537.69 446.94 559.43 468.70 559.43 495.55 L 559.43 505.27 Z M 510.71 446.90 C 483.88 446.94 462.14 468.70 462.14 495.55 L 462.14 505.27 L 403.76 505.27 L 403.76 495.55 C 403.76 478.03 407.97 461.49 415.43 446.90 L 510.71 446.90 Z" fill="#f6f5ff" fill-rule="evenodd" node-id="105" stroke="none" target-height="58.375" target-width="214.04297" target-x="403.76202" target-y="446.899"/><path d="M 524.16 507.80 C 517.36 514.60 506.89 518.77 501.96 520.46 C 500.75 520.88 499.67 519.81 500.09 518.59 C 501.79 513.66 505.95 503.20 512.75 496.40 C 521.90 487.25 527.06 487.20 530.21 490.35 C 533.36 493.49 533.30 498.65 524.16 507.80 Z" fill="#c2b9e0" fill-rule="nonzero" node-id="107" stroke="none" target-height="33.684967" target-width="33.685028" target-x="499.67496" target-y="487.196"/><path d="M 522.92 487.16 C 519.13 488.14 514.14 491.25 507.60 497.78 C 498.02 507.36 492.21 522.33 489.85 529.47 C 489.57 530.30 490.26 530.98 491.08 530.71 C 498.23 528.34 513.19 522.54 522.77 512.96 C 529.31 506.42 532.41 501.43 533.39 497.63 C 534.34 493.96 533.31 491.34 531.26 489.29 C 529.21 487.25 526.60 486.22 522.92 487.16 Z M 522.32 484.81 C 526.88 483.64 530.36 484.96 532.98 487.57 C 535.60 490.19 536.92 493.68 535.75 498.24 C 534.61 502.67 531.13 508.04 524.49 514.68 C 514.48 524.69 499.03 530.64 491.85 533.02 C 489.12 533.92 486.64 531.43 487.54 528.71 C 489.92 521.52 495.87 506.07 505.88 496.06 C 512.52 489.42 517.89 485.95 522.32 484.81 Z" fill="#c2b9e0" fill-rule="evenodd" node-id="109" stroke="none" target-height="50.282013" target-width="50.282013" target-x="486.637" target-y="483.637"/><path d="M 550.15 418.17 L 571.50 381.63 C 572.56 379.81 570.97 377.59 568.91 378.02 L 513.32 389.58 L 502.46 407.68 L 541.43 421.37 C 544.73 422.53 548.38 421.19 550.15 418.17 Z" fill="#f9f9ff" fill-rule="nonzero" node-id="111" stroke="none" target-height="44.940002" target-width="70.106995" target-x="502.45703" target-y="377.589"/><path d="M 569.15 379.21 C 570.18 378.99 570.98 380.10 570.45 381.01 L 549.10 417.55 C 547.63 420.07 544.58 421.19 541.83 420.22 L 504.27 407.02 L 514.09 390.66 L 569.15 379.21 Z M 572.55 382.24 C 574.15 379.51 571.75 376.18 568.66 376.83 L 512.55 388.49 L 500.65 408.33 L 541.02 422.52 C 544.87 423.87 549.14 422.30 551.20 418.78 L 572.55 382.24 Z" fill="#c2b9e0" fill-rule="evenodd" node-id="113" stroke="none" target-height="47.686066" target-width="73.49899" target-x="500.647" target-y="376.18396"/><path d="M 505.09 393.84 C 499.90 402.82 497.69 411.25 500.13 412.66 C 502.58 414.07 508.77 407.94 513.95 398.96 C 519.14 389.98 521.36 381.56 518.91 380.14 C 516.46 378.73 510.27 384.86 505.09 393.84 Z" fill="#d2d0ef" fill-rule="nonzero" node-id="115" stroke="none" target-height="35.345" target-width="23.67102" target-x="497.685" target-y="378.73"/><path d="M 518.12 386.41 C 517.25 389.68 515.46 393.93 512.90 398.35 C 510.35 402.78 507.57 406.46 505.16 408.84 C 503.95 410.04 502.89 410.86 502.04 411.30 C 501.13 411.76 500.80 411.64 500.74 411.61 C 500.69 411.58 500.41 411.34 500.36 410.33 C 500.31 409.37 500.49 408.04 500.92 406.40 C 501.78 403.12 503.58 398.87 506.14 394.45 C 508.69 390.03 511.47 386.34 513.88 383.96 C 515.09 382.76 516.15 381.94 517.00 381.51 C 517.90 381.04 518.24 381.17 518.30 381.20 C 518.35 381.23 518.63 381.46 518.68 382.48 C 518.73 383.43 518.55 384.76 518.12 386.41 Z M 521.11 382.36 C 521.05 381.12 520.68 379.77 519.51 379.09 C 518.35 378.42 516.99 378.78 515.89 379.34 C 514.73 379.94 513.46 380.95 512.17 382.23 C 509.57 384.81 506.66 388.68 504.03 393.23 C 501.40 397.79 499.50 402.24 498.57 405.78 C 498.11 407.54 497.87 409.14 497.93 410.45 C 497.99 411.69 498.36 413.04 499.53 413.71 C 500.70 414.39 502.05 414.03 503.15 413.46 C 504.31 412.86 505.58 411.85 506.87 410.57 C 509.47 408.00 512.38 404.13 515.01 399.57 C 517.64 395.01 519.54 390.56 520.47 387.03 C 520.93 385.27 521.17 383.66 521.11 382.36 Z" fill="#c2b9e0" fill-rule="evenodd" node-id="117" stroke="none" target-height="35.974" target-width="23.307983" target-x="497.86603" target-y="378.415"/><path d="M 549.53 451.13 L 566.43 468.03 L 549.53 492.17 C 549.53 492.17 541.69 492.77 533.24 484.32 C 524.79 475.87 525.40 468.03 525.40 468.03 L 549.53 451.13 Z" fill="#d2d0ef" fill-rule="nonzero" node-id="119" stroke="none" target-height="41.633972" target-width="41.63501" target-x="524.794" target-y="451.135"/><path d="M 549.67 449.55 L 568.01 467.89 L 550.20 493.33 L 549.63 493.38 L 549.53 492.17 C 549.63 493.38 549.63 493.38 549.63 493.38 L 549.62 493.38 L 549.62 493.38 L 549.61 493.38 L 549.58 493.38 C 549.57 493.38 549.56 493.38 549.54 493.38 C 549.53 493.38 549.51 493.38 549.49 493.38 C 549.42 493.39 549.31 493.39 549.18 493.39 C 548.92 493.39 548.54 493.38 548.07 493.34 C 547.13 493.26 545.80 493.05 544.21 492.58 C 541.01 491.62 536.76 489.56 532.38 485.18 C 528.01 480.81 525.95 476.56 524.99 473.36 C 524.51 471.76 524.31 470.43 524.22 469.49 C 524.18 469.02 524.17 468.65 524.17 468.38 C 524.17 468.25 524.17 468.15 524.18 468.07 C 524.18 468.03 524.18 468.00 524.18 467.98 L 524.18 467.95 L 524.18 467.94 L 524.18 467.94 C 524.18 467.94 524.18 468.07 524.18 467.94 L 524.23 467.36 L 549.67 449.55 Z M 526.61 468.67 C 526.62 468.83 526.63 469.04 526.65 469.28 C 526.72 470.07 526.89 471.24 527.32 472.66 C 528.17 475.49 530.03 479.39 534.10 483.46 C 538.17 487.54 542.07 489.40 544.90 490.25 C 546.33 490.67 547.49 490.85 548.28 490.92 C 548.52 490.94 548.73 490.95 548.90 490.95 L 564.85 468.17 L 549.39 452.72 L 526.61 468.67 Z" fill="#c2b9e0" fill-rule="evenodd" node-id="121" stroke="none" target-height="43.83795" target-width="43.838013" target-x="524.172" target-y="449.553"/><path d="M 531.43 437.86 L 579.70 486.13 L 559.19 492.17 C 559.19 492.17 550.14 491.56 538.07 479.49 C 526.00 467.43 525.40 458.38 525.40 458.38 L 531.43 437.86 Z" fill="#d2d0ef" fill-rule="nonzero" node-id="123" stroke="none" target-height="54.306" target-width="54.304993" target-x="525.398" target-y="437.86"/><path d="M 530.84 435.55 L 582.01 486.72 L 559.32 493.39 L 559.11 493.38 L 559.19 492.17 C 559.11 493.38 559.11 493.38 559.11 493.38 L 559.10 493.38 L 559.10 493.38 L 559.09 493.38 L 559.06 493.38 C 559.03 493.37 559.00 493.37 558.96 493.37 C 558.87 493.36 558.75 493.34 558.60 493.32 C 558.29 493.27 557.86 493.20 557.30 493.07 C 556.20 492.81 554.62 492.33 552.66 491.47 C 548.75 489.75 543.35 486.49 537.21 480.35 C 531.07 474.22 527.82 468.81 526.10 464.90 C 525.23 462.94 524.76 461.37 524.50 460.26 C 524.37 459.70 524.29 459.27 524.24 458.97 C 524.22 458.81 524.21 458.69 524.20 458.61 C 524.19 458.57 524.19 458.53 524.19 458.51 L 524.18 458.47 L 524.18 458.46 L 524.18 458.46 C 524.18 458.46 524.20 458.65 524.20 458.61 L 524.18 458.46 L 524.17 458.24 L 530.84 435.55 Z M 526.63 458.49 C 526.64 458.52 526.64 458.56 526.65 458.61 C 526.68 458.85 526.75 459.22 526.86 459.70 C 527.09 460.67 527.52 462.10 528.32 463.92 C 529.92 467.55 533.00 472.70 538.93 478.63 C 544.86 484.57 550.01 487.65 553.64 489.24 C 555.46 490.04 556.90 490.47 557.87 490.70 C 558.35 490.81 558.72 490.88 558.95 490.91 C 559.00 490.92 559.04 490.93 559.08 490.93 L 577.39 485.54 L 532.02 440.17 L 526.63 458.49 Z" fill="#c2b9e0" fill-rule="evenodd" node-id="125" stroke="none" target-height="57.843018" target-width="57.84204" target-x="524.17" target-y="435.551"/><path d="M 541.09 423.38 L 594.18 476.48 L 579.70 490.96 C 579.70 490.96 567.03 495.18 544.71 472.86 C 522.38 450.53 526.60 437.86 526.60 437.86 L 541.09 423.38 Z" fill="#f2f1fe" fill-rule="nonzero" node-id="127" stroke="none" target-height="71.80502" target-width="71.804016" target-x="522.381" target-y="423.378"/><path d="M 541.09 421.66 L 595.90 476.48 L 580.36 492.02 L 580.09 492.11 L 579.70 490.96 C 580.09 492.11 580.09 492.11 580.09 492.11 L 580.08 492.11 L 580.08 492.12 L 580.06 492.12 L 580.01 492.14 C 579.97 492.15 579.92 492.16 579.86 492.18 C 579.74 492.21 579.56 492.25 579.34 492.29 C 578.89 492.38 578.24 492.46 577.41 492.49 C 575.75 492.54 573.34 492.35 570.24 491.45 C 564.04 489.64 555.12 484.99 543.85 473.72 C 532.58 462.45 527.92 453.53 526.12 447.33 C 525.21 444.23 525.03 441.82 525.08 440.15 C 525.10 439.32 525.19 438.68 525.27 438.23 C 525.31 438.00 525.35 437.83 525.38 437.70 C 525.40 437.64 525.42 437.59 525.43 437.55 L 525.44 437.50 L 525.45 437.49 L 525.45 437.48 L 525.45 437.48 C 525.45 437.48 525.45 437.48 526.60 437.86 L 525.45 437.48 L 525.54 437.20 L 541.09 421.66 Z M 527.70 438.49 C 527.69 438.54 527.67 438.60 527.66 438.67 C 527.60 439.00 527.53 439.52 527.51 440.23 C 527.47 441.63 527.62 443.79 528.45 446.65 C 530.12 452.36 534.51 460.94 545.57 472.00 C 556.62 483.05 565.20 487.45 570.92 489.11 C 573.77 489.94 575.93 490.10 577.34 490.05 C 578.04 490.03 578.56 489.96 578.89 489.90 C 578.96 489.89 579.02 489.88 579.08 489.86 L 592.47 476.48 L 541.09 425.10 L 527.70 438.49 Z" fill="#c2b9e0" fill-rule="evenodd" node-id="129" stroke="none" target-height="70.87799" target-width="70.87805" target-x="525.027" target-y="421.65802"/><path d="M 546.52 469.65 C 546.72 469.86 546.93 470.06 547.14 470.27 C 567.02 490.16 578.31 486.40 578.31 486.40 L 591.21 473.50 L 576.61 458.90 L 546.52 469.65 Z" fill="#d2d0ef" fill-rule="nonzero" node-id="131" stroke="none" target-height="31.254974" target-width="44.68799" target-x="546.518" target-y="458.904"/><path d="M 578.31 362.02 C 598.52 341.81 625.93 330.45 654.51 330.45 L 673.21 330.45 C 680.88 330.45 687.11 336.68 687.11 344.36 L 687.11 363.05 C 687.11 391.63 675.75 419.04 655.54 439.25 C 648.46 446.33 640.43 452.40 631.68 457.26 L 590.57 480.10 C 590.57 480.10 577.89 483.11 556.17 461.39 C 534.45 439.67 537.47 427.00 537.47 427.00 L 560.30 385.89 C 565.17 377.13 571.23 369.10 578.31 362.02 Z" fill="#eeedfb" fill-rule="nonzero" node-id="133" stroke="none" target-height="152.65903" target-width="152.659" target-x="534.449" target-y="330.455"/><path d="M 591.13 482.46 L 590.57 480.10 L 631.68 457.26 C 640.43 452.40 648.46 446.33 655.54 439.25 C 675.75 419.04 687.11 391.63 687.11 363.05 L 687.11 344.36 C 687.11 336.68 680.88 330.45 673.21 330.45 L 654.51 330.45 C 625.93 330.45 598.52 341.81 578.31 362.02 C 571.23 369.10 565.17 377.13 560.30 385.89 L 537.47 427.00 L 535.10 426.44 L 535.18 426.11 L 558.18 384.71 C 563.15 375.75 569.35 367.54 576.59 360.30 C 597.25 339.63 625.29 328.02 654.51 328.02 L 673.21 328.02 C 682.23 328.02 689.54 335.33 689.54 344.36 L 689.54 363.05 C 689.54 392.28 677.93 420.31 657.26 440.98 C 650.02 448.21 641.81 454.41 632.86 459.38 L 591.45 482.39 L 591.13 482.46 Z M 537.47 427.00 C 537.47 427.00 534.45 439.67 556.17 461.39 C 577.89 483.11 590.57 480.10 590.57 480.10 C 591.13 482.46 591.13 482.46 591.12 482.47 L 591.12 482.47 L 591.11 482.47 L 591.08 482.47 L 591.02 482.49 C 590.97 482.50 590.90 482.51 590.83 482.52 C 590.68 482.55 590.48 482.58 590.23 482.60 C 589.73 482.66 589.03 482.69 588.15 482.66 C 586.39 482.60 583.90 482.25 580.74 481.20 C 574.43 479.09 565.52 474.18 554.45 463.11 C 543.38 452.05 538.47 443.13 536.37 436.82 C 535.31 433.66 534.97 431.17 534.90 429.41 C 534.87 428.53 534.91 427.83 534.96 427.34 C 534.99 427.09 535.01 426.89 535.04 426.74 C 535.05 426.66 535.07 426.60 535.08 426.55 L 535.09 426.48 L 535.10 426.46 L 535.10 426.44 L 535.10 426.44 C 535.10 426.44 535.10 426.44 537.47 427.00 Z" fill="#c2b9e0" fill-rule="evenodd" node-id="135" stroke="none" target-height="155.091" target-width="155.09204" target-x="534.449" target-y="328.023"/><path d="M 555.84 437.40 C 571.50 453.06 611.48 438.48 645.14 404.82 C 668.63 381.33 682.83 354.76 683.95 335.53 C 685.92 337.93 687.11 341.00 687.11 344.36 L 687.11 363.05 C 687.11 391.63 675.75 419.04 655.54 439.25 C 648.46 446.34 640.43 452.40 631.68 457.26 L 590.57 480.10 C 590.57 480.10 577.89 483.12 556.17 461.39 C 534.45 439.67 537.47 427.00 537.47 427.00 L 556.00 393.64 C 547.78 412.26 547.07 428.64 555.84 437.40 Z" fill="#d2d0ef" fill-rule="evenodd" node-id="137" stroke="none" target-height="147.58902" target-width="152.66003" target-x="534.449" target-y="335.526"/><path d="M 608.67 408.90 C 620.66 420.89 640.11 420.89 652.11 408.90 C 664.11 396.90 664.11 377.45 652.11 365.45 C 640.11 353.45 620.66 353.45 608.67 365.45 C 596.67 377.45 596.67 396.90 608.67 408.90 Z M 613.49 404.07 C 622.82 413.40 637.95 413.40 647.28 404.07 C 656.62 394.74 656.62 379.61 647.28 370.28 C 637.95 360.95 622.82 360.95 613.49 370.28 C 604.16 379.61 604.16 394.74 613.49 404.07 Z" fill="#c2b9e0" fill-rule="evenodd" node-id="139" stroke="none" target-height="67.439026" target-width="67.43799" target-x="596.67" target-y="353.455"/><path d="M 591.50 472.81 L 633.88 448.05 C 634.63 447.61 635.54 448.26 635.36 449.11 L 623.15 507.85 L 605.05 518.72 L 590.18 476.40 C 589.70 475.04 590.25 473.54 591.50 472.81 Z" fill="#e8e6fb" fill-rule="nonzero" node-id="141" stroke="#c2b9e0" stroke-linecap="butt" stroke-width="1" target-height="71.107025" target-width="45.836" target-x="589.703" target-y="447.608"/><path d="M 594.79 471.09 L 631.34 449.73 C 633.15 448.67 635.37 450.27 634.94 452.33 L 623.38 507.92 L 605.28 518.78 L 591.59 479.81 C 590.43 476.51 591.77 472.85 594.79 471.09 Z" fill="#f2f1fe" fill-rule="nonzero" node-id="143" stroke="none" target-height="70.10797" target-width="44.940002" target-x="590.432" target-y="448.67102"/><path d="M 633.75 452.08 C 633.97 451.05 632.86 450.25 631.95 450.78 L 595.41 472.14 C 592.89 473.61 591.77 476.66 592.74 479.41 L 605.94 516.97 L 622.30 507.15 L 633.75 452.08 Z M 630.72 448.68 C 633.45 447.09 636.78 449.48 636.13 452.58 L 624.47 508.69 L 604.63 520.59 L 590.44 480.21 C 589.09 476.36 590.66 472.10 594.18 470.04 L 630.72 448.68 Z" fill="#c2b9e0" fill-rule="evenodd" node-id="145" stroke="none" target-height="73.49997" target-width="47.684998" target-x="589.092" target-y="447.08902"/><path d="M 612.92 463.93 L 612.03 465.12 C 604.75 474.99 602.48 488.50 606.05 500.77 C 606.78 503.31 609.37 504.44 611.39 503.10 L 622.67 495.66 L 620.89 505.49 L 607.05 515.00 L 596.14 479.38 C 595.51 477.35 596.24 475.10 597.85 474.02 L 612.92 463.93 Z" fill="#d2d0ef" fill-rule="nonzero" node-id="147" stroke="none" target-height="51.07904" target-width="27.154968" target-x="595.515" target-y="463.925"/><path d="M 618.88 516.09 C 609.90 521.27 601.48 523.49 600.06 521.04 C 598.65 518.59 604.78 512.40 613.76 507.22 C 622.74 502.03 631.17 499.82 632.58 502.26 C 633.99 504.71 627.86 510.90 618.88 516.09 Z" fill="#d2d0ef" fill-rule="nonzero" node-id="149" stroke="none" target-height="23.67099" target-width="35.343994" target-x="598.65" target-y="499.816"/><path d="M 626.32 503.06 C 623.04 503.92 618.79 505.72 614.37 508.27 C 609.95 510.82 606.26 513.61 603.88 516.01 C 602.68 517.22 601.86 518.28 601.43 519.13 C 600.96 520.04 601.09 520.38 601.12 520.43 C 601.15 520.48 601.38 520.76 602.40 520.81 C 603.35 520.86 604.68 520.68 606.33 520.25 C 609.60 519.39 613.85 517.59 618.27 515.03 C 622.70 512.48 626.38 509.70 628.76 507.29 C 629.96 506.08 630.78 505.02 631.22 504.17 C 631.68 503.27 631.56 502.93 631.53 502.87 C 631.50 502.82 631.26 502.54 630.25 502.49 C 629.29 502.44 627.96 502.62 626.32 503.06 Z M 630.37 500.06 C 631.61 500.12 632.96 500.49 633.63 501.66 C 634.31 502.83 633.95 504.18 633.38 505.28 C 632.78 506.45 631.77 507.71 630.49 509.00 C 627.92 511.60 624.04 514.51 619.49 517.14 C 614.93 519.77 610.48 521.67 606.95 522.60 C 605.18 523.06 603.58 523.30 602.28 523.24 C 601.04 523.18 599.69 522.82 599.01 521.65 C 598.34 520.48 598.70 519.12 599.26 518.02 C 599.86 516.86 600.87 515.59 602.15 514.30 C 604.73 511.70 608.60 508.79 613.15 506.16 C 617.71 503.53 622.16 501.63 625.70 500.70 C 627.46 500.24 629.06 500.00 630.37 500.06 Z" fill="#c2b9e0" fill-rule="evenodd" node-id="151" stroke="none" target-height="23.307983" target-width="35.974" target-x="598.335" target-y="499.997"/><path d="M 586.39 437.06 L 593.63 429.82 C 595.63 427.82 595.63 424.58 593.63 422.58 C 591.63 420.58 588.39 420.58 586.39 422.58 L 579.15 429.82 C 577.15 431.82 577.15 435.06 579.15 437.06 C 581.15 439.06 584.39 439.06 586.39 437.06 Z M 597.25 418.96 C 593.25 414.96 586.77 414.96 582.77 418.96 L 575.53 426.20 C 571.53 430.20 571.53 436.68 575.53 440.68 C 579.53 444.68 586.01 444.68 590.01 440.68 L 597.25 433.44 C 601.25 429.44 601.25 422.96 597.25 418.96 Z" fill="#c2b9e0" fill-rule="evenodd" node-id="153" stroke="none" target-height="29.720001" target-width="29.720032" target-x="571.529" target-y="414.962"/><path d="M 650.64 387.31 C 650.64 398.39 641.66 407.37 630.58 407.37 C 619.49 407.37 610.51 398.39 610.51 387.31 C 610.51 376.23 619.49 367.24 630.58 367.24 C 641.66 367.24 650.64 376.23 650.64 387.31 Z" fill="#c2b9e0" fill-rule="nonzero" node-id="155" stroke="none" target-height="40.132996" target-width="40.132996" target-x="610.508" target-y="367.241"/><path d="M 628.09 399.77 C 636.88 399.77 644.01 392.48 644.01 383.49 C 644.01 380.93 643.43 378.51 642.41 376.36 C 645.25 379.20 646.99 383.06 646.99 387.32 C 646.99 396.04 639.64 403.12 630.58 403.12 C 623.70 403.12 617.82 399.05 615.37 393.27 C 618.28 397.22 622.89 399.77 628.09 399.77 Z" fill="#ffffff" fill-rule="nonzero" node-id="157" stroke="none" target-height="26.755035" target-width="31.619995" target-x="615.373" target-y="376.36197"/><g node-id="163"><path d="M 628.35 373.27 C 628.62 373.74 628.51 374.41 628.04 375.12 C 627.56 375.84 626.77 376.55 625.83 377.09 C 624.89 377.63 623.88 377.97 623.02 378.02 C 622.17 378.07 621.53 377.83 621.26 377.36 C 620.99 376.89 621.10 376.23 621.58 375.51 C 622.05 374.79 622.84 374.09 623.78 373.54 C 624.72 373.00 625.73 372.67 626.59 372.62 C 627.45 372.56 628.08 372.80 628.35 373.27 Z" fill="#ffffff" fill-rule="nonzero" group-id="1" node-id="161" stroke="none" target-height="5.5042114" target-width="7.6330566" target-x="620.98944" target-y="372.56485"/></g></svg>
