<svg width="901" height="321" viewBox="0 0 901 321" fill="none" xmlns="http://www.w3.org/2000/svg">
    <path d="M160.513 320.954L320.426 160.777C320.426 160.777 320.426 160.592 320.426 160.5C320.472 71.8622 248.728 0 160.236 0C71.7441 0 0 71.8622 0 160.5C0 249.138 71.7441 321 160.236 321C160.328 321 160.421 321 160.513 321V320.954Z" fill="url(#paint0_linear_0_1)"/>
    <mask id="mask0_0_1" style="mask-type:luminance" maskUnits="userSpaceOnUse" x="0" y="0" width="321" height="321">
        <path d="M160.513 320.954L320.426 160.777C320.426 160.777 320.426 160.592 320.426 160.5C320.472 71.8622 248.728 0 160.236 0C71.7441 0 0 71.8622 0 160.5C0 249.138 71.7441 321 160.236 321C160.328 321 160.421 321 160.513 321V320.954Z" fill="url(#paint1_linear_0_1)"/>
    </mask>
    <g mask="url(#mask0_0_1)">
        <path d="M102.545 95.4675C369.427 -29.0128 44.7924 -49.224 44.7924 -49.224L-56.3032 354.176L-64.6757 388.657C-64.6757 388.657 -63.6262 172.973 102.545 95.4675Z" fill="url(#paint2_linear_0_1)"/>
        <path d="M365.09 152.95C365.09 152.95 360.106 54.4777 246.616 118.005C133.125 181.532 -2.22975 518.281 254.948 490.669C512.126 463.057 265.333 428.348 265.333 428.348L365.09 152.95Z" fill="url(#paint3_linear_0_1)"/>
    </g>
    <path d="M818.418 134.397L840.565 193.227L866.534 134.397H900.238L835.547 280.94H802.948L823.759 230.66C812.248 201.638 784.3 137.724 784.116 134.351H818.372L818.418 134.397Z" fill="#FDFFFE"/>
    <path d="M591.89 215.125C590.509 209.996 590.095 134.39 590.095 134.39H620.484V191.002C621.082 197.657 624.674 206.576 637.934 206.576C651.195 206.576 658.193 199.182 658.193 189.8C658.193 189.8 658.47 150.288 659.16 134.39H690.102L689.549 236.522H659.16V224.322C644.841 244.009 598.014 238.001 591.844 215.125H591.89Z" fill="#FDFFFE"/>
    <path d="M711 134.39H739.962V147.7C745.763 141.923 750.138 135.915 758.748 133.79C763.812 132.542 774.264 132.357 774.264 133.79V163.228C774.264 163.228 757.735 157.497 746.638 170.437C744.566 172.84 741.481 177.23 741.113 184.856V236.476H710.724L711.092 134.344L711 134.39Z" fill="#FDFFFE"/>
    <path d="M577.378 172.148H545.884C545.194 172.148 541.142 160.964 524.658 160.363C517.337 160.132 502.189 166.001 501.913 184.533C501.636 199.691 509.878 210.551 524.981 210.274C538.932 209.997 544.918 197.658 545.378 197.658H577.424C572.452 234.721 531.933 247.153 500.393 234.49C457.711 217.345 459.829 150.936 502.788 135.454C533.499 124.363 571.899 136.841 577.424 172.102L577.378 172.148Z" fill="#FDFFFE"/>
    <path d="M466.836 133.951V162.28C466.836 162.28 448.741 163.759 443.722 166.809C438.703 169.859 432.533 176.144 432.579 185.618V237.238H400.533V135.106H432.579L433.132 148.416C440.084 135.43 452.977 132.842 466.882 133.997L466.836 133.951Z" fill="#FDFFFE"/>
    <path d="M338.565 132.169C333.454 131.291 305.46 128.333 285.477 152.133C266.967 174.223 273.597 217.294 299.842 231.528C328.021 246.825 374.709 240.124 382.813 204.308H351.872C351.872 204.308 345.288 214.614 330.323 214.614C321.161 214.614 309.88 207.22 307.67 194.28H383.412C384.425 186.47 383.642 139.655 338.611 132.122L338.565 132.169ZM307.578 175.471C311.353 151.07 351.688 149.406 352.931 175.471H307.578Z" fill="#FDFFFE"/>
    <path d="M160.212 207.312L220.292 147.125V215.792L260.345 173.875V86.9375H220.292L160.212 153.812L100.132 86.9375H60.0786L60.8752 246.461C63.0392 246.553 89.1 246.091 99.9203 246.461L100.132 147.125L160.212 207.312Z" fill="#FDFFFE"/>
    <defs>
        <linearGradient id="paint0_linear_0_1" x1="31.0041" y1="-5.65385e-06" x2="289.344" y2="321.063" gradientUnits="userSpaceOnUse">
            <stop stop-color="#61D2AE"/>
            <stop offset="1" stop-color="#278A6B"/>
        </linearGradient>
        <linearGradient id="paint1_linear_0_1" x1="170.226" y1="3.34375" x2="209.794" y2="317.717" gradientUnits="userSpaceOnUse">
            <stop stop-color="#61D2AE"/>
            <stop offset="1" stop-color="#278A6B"/>
        </linearGradient>
        <linearGradient id="paint2_linear_0_1" x1="214.726" y1="-36.7811" x2="-52.9091" y2="320.541" gradientUnits="userSpaceOnUse">
            <stop stop-color="#BCFFEA"/>
            <stop offset="1" stop-color="#44B692"/>
        </linearGradient>
        <linearGradient id="paint3_linear_0_1" x1="150.779" y1="456.118" x2="274.003" y2="108.465" gradientUnits="userSpaceOnUse">
            <stop stop-color="#32968C"/>
            <stop offset="1" stop-color="#00776B"/>
        </linearGradient>
    </defs>
</svg>
