<svg width="321" height="321" viewBox="0 0 321 321" fill="none" xmlns="http://www.w3.org/2000/svg">
    <path d="M160.513 320.954L320.426 160.777C320.426 160.777 320.426 160.592 320.426 160.5C320.472 71.8622 248.728 0 160.236 0C71.7441 0 0 71.8622 0 160.5C0 249.138 71.7441 321 160.236 321C160.328 321 160.421 321 160.513 321V320.954Z" fill="url(#paint0_linear_0_1)"/>
    <mask id="mask0_0_1" style="mask-type:luminance" maskUnits="userSpaceOnUse" x="0" y="0" width="321" height="321">
        <path d="M160.513 320.954L320.426 160.777C320.426 160.777 320.426 160.592 320.426 160.5C320.472 71.8622 248.728 0 160.236 0C71.7441 0 0 71.8622 0 160.5C0 249.138 71.7441 321 160.236 321C160.328 321 160.421 321 160.513 321V320.954Z" fill="url(#paint1_linear_0_1)"/>
    </mask>
    <g mask="url(#mask0_0_1)">
        <path d="M102.545 95.4675C369.427 -29.0128 44.7924 -49.224 44.7924 -49.224L-56.3032 354.176L-64.6757 388.657C-64.6757 388.657 -63.6262 172.973 102.545 95.4675Z" fill="url(#paint2_linear_0_1)"/>
        <path d="M365.09 152.95C365.09 152.95 360.106 54.4777 246.616 118.005C133.125 181.532 -2.22975 518.281 254.948 490.669C512.126 463.057 265.333 428.348 265.333 428.348L365.09 152.95Z" fill="url(#paint3_linear_0_1)"/>
    </g>
    <path d="M160.212 207.312L220.292 147.125V215.792L260.345 173.875V86.9375H220.292L160.212 153.812L100.132 86.9375H60.0786L60.8752 246.461C63.0392 246.553 89.1 246.091 99.9203 246.461L100.132 147.125L160.212 207.312Z" fill="#FDFFFE"/>
    <defs>
        <linearGradient id="paint0_linear_0_1" x1="31.0041" y1="-5.65385e-06" x2="289.344" y2="321.063" gradientUnits="userSpaceOnUse">
            <stop stop-color="#61D2AE"/>
            <stop offset="1" stop-color="#278A6B"/>
        </linearGradient>
        <linearGradient id="paint1_linear_0_1" x1="170.226" y1="3.34375" x2="209.794" y2="317.717" gradientUnits="userSpaceOnUse">
            <stop stop-color="#61D2AE"/>
            <stop offset="1" stop-color="#278A6B"/>
        </linearGradient>
        <linearGradient id="paint2_linear_0_1" x1="214.726" y1="-36.7811" x2="-52.9091" y2="320.541" gradientUnits="userSpaceOnUse">
            <stop stop-color="#BCFFEA"/>
            <stop offset="1" stop-color="#44B692"/>
        </linearGradient>
        <linearGradient id="paint3_linear_0_1" x1="150.779" y1="456.118" x2="274.003" y2="108.465" gradientUnits="userSpaceOnUse">
            <stop stop-color="#32968C"/>
            <stop offset="1" stop-color="#00776B"/>
        </linearGradient>
    </defs>
</svg>
